<svg id="Layer_1" data-name="Layer 1" xmlns="http://www.w3.org/2000/svg" viewBox="0 0 659.33 334.36"><defs><style>.cls-1{fill:#fff;}</style></defs><path class="cls-1" d="M116.35,197.5A229.55,229.55,0,0,1,146.84,104l-5.79.58c-25.28,2.66-46.47-6.05-64.44-23.42-5.27-5.1-4.37-11.57,1.86-15.81,28-19.1,67.07-21.65,96.17-2.06a23.16,23.16,0,0,1,2.65,1.82,21.38,21.38,0,0,1,2.4-3.77,223.26,223.26,0,0,1,43.48-34.64c3.62-2.19,7.27-2.59,10.92-.31a9.07,9.07,0,0,1,4.36,9.26c-.36,3.54-2.55,5.76-5.38,7.65-5.91,3.93-11.71,8-17.61,12a5.27,5.27,0,0,0-2.53,5.29,177.77,177.77,0,0,0,25.8,83.73c3.67,6.06,8.11,11.66,12,17.6,1.7,2.6,3.59,3,6.28,1.87,5.36-2.33,10.9-4.28,16.12-6.87,31-15.42,62-2.37,78.3,25.82,8.95,15.47,11.05,32.53,9.57,49.91-2.23,26-13.32,48-32.77,65.57-33.49,30.3-81.64,32.76-118,6-.79-.58-1.61-1.12-2.21-1.53-4.25,6.43-7.89,13.15-12.65,18.94-22.39,27.28-51.54,40.17-86.6,37.15-24.08-2.07-43.85-14.27-59.92-32.07C28,303.57,20.27,275.92,23.16,245.39c1.77-18.66,10.77-34,26.26-44.69,11.32-7.78,24.56-10.46,38.18-8.8C97.17,193.06,106.58,195.54,116.35,197.5Zm225.55,27c0-16.95-3.93-29.67-12.83-40-9.48-11-21.16-17.2-36-14-5.75,1.23-11.3,3.79-16.69,6.29-9.24,4.28-18.68,7.54-29,8-8.58.38-17.25.22-25.73,1.38-26.92,3.67-39.86,23.62-34.92,48.15,5.58,27.69,22,48.5,47.21,61.7a65.66,65.66,0,0,0,41,6.84C313.09,297.14,341.9,263.35,341.9,224.54Zm-175.12-6.43c-7.18.43-13.85.61-20.48,1.3-8.82.92-17.61,2-26.37-.32s-17.67-5.22-26.66-7.07c-26.42-5.45-45.45,6.68-50.52,33.22-2.51,13.15-.21,26.37,4.1,39C54.57,307,68,324.94,90.65,334.5c36.45,15.39,81.33-2.78,99.14-39.64,2.23-4.62,2.23-7.75-1.17-12.17C174.39,264.16,165.35,243.57,166.78,218.11Zm4.47-17.68c12.21-24,33-32.81,58.25-34.68a202.16,202.16,0,0,1-34.95-92.12c-35,36.11-54.12,78.29-59.2,127.47C147.72,200.15,159.42,197.14,171.25,200.43Zm-71-125.13c18.16,13.83,45.87,13.58,61.14,1.83C141.22,67.12,121,66.28,100.22,75.3Z" transform="translate(297.91 -24.82)"/><path class="cls-1" d="M-295.5,41.72c3.22,0,3.22-5,0-5s-3.22,5,0,5Z" transform="translate(297.91 -24.82)"/></svg>